<?xml version="1.0" encoding="UTF-8"?>
<svg xmlns="http://www.w3.org/2000/svg" viewBox="0 0 1400 900">
  <!-- Background -->
  <rect width="1400" height="900" fill="#f7f3e9"/>
  
  <!-- Header -->
  <rect x="20" y="20" width="1360" height="120" rx="12" fill="white" stroke="#e5e7eb" stroke-width="1"/>
  <text x="40" y="60" font-family="Arial" font-size="28" font-weight="bold" fill="#111">OTT Compliance Events Pipeline - Dashboard</text>
  
  <!-- Status boxes -->
  <g>
    <!-- Events box -->
    <rect x="40" y="75" width="160" height="55" rx="6" fill="#f3f4f6" stroke="#e5e7eb" stroke-width="1"/>
    <text x="50" y="90" font-family="Arial" font-size="11" fill="#6b7280">Real-time Events</text>
    <text x="50" y="115" font-family="Arial" font-size="20" font-weight="bold" fill="#111">4,950</text>
    
    <!-- Anomalies box -->
    <rect x="210" y="75" width="160" height="55" rx="6" fill="#f3f4f6" stroke="#e5e7eb" stroke-width="1"/>
    <text x="220" y="90" font-family="Arial" font-size="11" fill="#6b7280">Anomalies Detected</text>
    <text x="220" y="115" font-family="Arial" font-size="20" font-weight="bold" fill="#111">125</text>
    
    <!-- Violations box -->
    <rect x="380" y="75" width="160" height="55" rx="6" fill="#f3f4f6" stroke="#e5e7eb" stroke-width="1"/>
    <text x="390" y="90" font-family="Arial" font-size="11" fill="#6b7280">Violations Caught</text>
    <text x="390" y="115" font-family="Arial" font-size="20" font-weight="bold" fill="#111">98</text>
    
    <!-- Uptime box -->
    <rect x="550" y="75" width="160" height="55" rx="6" fill="#f3f4f6" stroke="#e5e7eb" stroke-width="1"/>
    <text x="560" y="90" font-family="Arial" font-size="11" fill="#6b7280">System Uptime</text>
    <text x="560" y="115" font-family="Arial" font-size="20" font-weight="bold" fill="#111">99.97%</text>
  </g>
  
  <!-- Cards grid -->
  <g>
    <!-- Processing Metrics Card -->
    <rect x="20" y="170" width="430" height="280" rx="12" fill="white" stroke="#e5e7eb" stroke-width="1"/>
    <text x="40" y="200" font-family="Arial" font-size="16" font-weight="bold" fill="#111">📊 Processing Metrics</text>
    <line x1="40" y1="210" x2="430" y2="210" stroke="#e5e7eb" stroke-width="2"/>
    <text x="60" y="260" font-family="Arial" font-size="14" fill="#4b5563">Average Latency: 42ms</text>
    <text x="60" y="290" font-family="Arial" font-size="14" fill="#4b5563">P95: 98ms | P99: 156ms</text>
    <text x="60" y="320" font-family="Arial" font-size="14" fill="#4b5563">Throughput: 22 events/sec</text>
    <text x="60" y="350" font-family="Arial" font-size="14" fill="#4b5563">ML Accuracy: 95.6%</text>
    <text x="60" y="380" font-family="Arial" font-size="14" fill="#4b5563">Cache Hit Rate: 77.4%</text>
  </g>
  
  <!-- Risk Distribution Card -->
  <g>
    <rect x="470" y="170" width="430" height="280" rx="12" fill="white" stroke="#e5e7eb" stroke-width="1"/>
    <text x="490" y="200" font-family="Arial" font-size="16" font-weight="bold" fill="#111">🎯 Risk Distribution</text>
    <line x1="490" y1="210" x2="880" y2="210" stroke="#e5e7eb" stroke-width="2"/>
    <!-- Pie chart representation -->
    <circle cx="630" cy="310" r="60" fill="#dcfce7" stroke="#22c55e" stroke-width="2"/>
    <text x="580" y="315" font-family="Arial" font-size="12" fill="#166534">Low 70.7%</text>
    <text x="560" y="385" font-family="Arial" font-size="12" fill="#92400e">Med 24.2%</text>
    <text x="740" y="315" font-family="Arial" font-size="12" fill="#991b1b">High 5.1%</text>
  </g>
  
  <!-- Cache Performance Card -->
  <g>
    <rect x="920" y="170" width="460" height="280" rx="12" fill="white" stroke="#e5e7eb" stroke-width="1"/>
    <text x="940" y="200" font-family="Arial" font-size="16" font-weight="bold" fill="#111">💾 Cache Performance</text>
    <line x1="940" y1="210" x2="1360" y2="210" stroke="#e5e7eb" stroke-width="2"/>
    <!-- Progress bar -->
    <rect x="960" y="260" width="350" height="20" rx="4" fill="#e5e7eb"/>
    <rect x="960" y="260" width="271" height="20" rx="4" fill="#3b82f6"/>
    <text x="960" y="300" font-family="Arial" font-size="12" fill="#4b5563">Hit Rate: 77.4%</text>
    <text x="960" y="330" font-family="Arial" font-size="12" fill="#4b5563">Improvement: +40%</text>
    <text x="960" y="360" font-family="Arial" font-size="12" fill="#4b5563">Cache Size: 2.3 GB</text>
  </g>
  
  <!-- Recent Alerts Card -->
  <g>
    <rect x="20" y="480" width="430" height="380" rx="12" fill="white" stroke="#e5e7eb" stroke-width="1"/>
    <text x="40" y="510" font-family="Arial" font-size="16" font-weight="bold" fill="#111">🔔 Recent Alerts</text>
    <line x1="40" y1="520" x2="430" y2="520" stroke="#e5e7eb" stroke-width="2"/>
    
    <!-- Alert items -->
    <rect x="40" y="540" width="390" height="50" rx="4" fill="#fee2e2" stroke="#fecaca" stroke-width="1"/>
    <text x="50" y="560" font-family="Arial" font-size="12" font-weight="bold" fill="#991b1b">Critical: Impossible travel detected</text>
    <text x="50" y="580" font-family="Arial" font-size="11" fill="#991b1b">Risk: 9.8/10 | User: user_123</text>
    
    <rect x="40" y="600" width="390" height="50" rx="4" fill="#fef3c7" stroke="#fcd34d" stroke-width="1"/>
    <text x="50" y="620" font-family="Arial" font-size="12" font-weight="bold" fill="#92400e">Warning: High anomaly score detected</text>
    <text x="50" y="640" font-family="Arial" font-size="11" fill="#92400e">Score: 0.87 | Confidence: 95.2%</text>
    
    <rect x="40" y="660" width="390" height="50" rx="4" fill="#dcfce7" stroke="#86efac" stroke-width="1"/>
    <text x="50" y="680" font-family="Arial" font-size="12" font-weight="bold" fill="#166534">Info: Daily compliance check passed</text>
    <text x="50" y="700" font-family="Arial" font-size="11" fill="#166534">All regulations: COMPLIANT</text>
    
    <rect x="40" y="720" width="390" height="50" rx="4" fill="#dcfce7" stroke="#86efac" stroke-width="1"/>
    <text x="50" y="740" font-family="Arial" font-size="12" font-weight="bold" fill="#166534">Success: ML models updated</text>
    <text x="50" y="760" font-family="Arial" font-size="11" fill="#166534">Models: LSTM, Transformer | Accuracy: 96.1%</text>
  </g>
  
  <!-- Compliance Status Card -->
  <g>
    <rect x="470" y="480" width="430" height="380" rx="12" fill="white" stroke="#e5e7eb" stroke-width="1"/>
    <text x="490" y="510" font-family="Arial" font-size="16" font-weight="bold" fill="#111">✅ Compliance Status</text>
    <line x1="490" y1="520" x2="880" y2="520" stroke="#e5e7eb" stroke-width="2"/>
    
    <!-- Status items -->
    <rect x="490" y="540" width="370" height="40" rx="4" fill="#dcfce7"/>
    <circle cx="510" cy="560" r="5" fill="#22c55e"/>
    <text x="530" y="565" font-family="Arial" font-size="12" fill="#166534">GDPR - Compliant</text>
    
    <rect x="490" y="590" width="370" height="40" rx="4" fill="#dcfce7"/>
    <circle cx="510" cy="610" r="5" fill="#22c55e"/>
    <text x="530" y="615" font-family="Arial" font-size="12" fill="#166534">CCPA - Compliant</text>
    
    <rect x="490" y="640" width="370" height="40" rx="4" fill="#dcfce7"/>
    <circle cx="510" cy="660" r="5" fill="#22c55e"/>
    <text x="530" y="665" font-family="Arial" font-size="12" fill="#166534">PIPL - Compliant</text>
    
    <rect x="490" y="690" width="370" height="40" rx="4" fill="#fef3c7"/>
    <circle cx="510" cy="710" r="5" fill="#f59e0b"/>
    <text x="530" y="715" font-family="Arial" font-size="12" fill="#92400e">PDPA - Review Required</text>
    
    <rect x="490" y="740" width="370" height="40" rx="4" fill="#dcfce7"/>
    <circle cx="510" cy="760" r="5" fill="#22c55e"/>
    <text x="530" y="765" font-family="Arial" font-size="12" fill="#166534">LGPD - Compliant</text>
  </g>
  
  <!-- Financial Impact Card -->
  <g>
    <rect x="920" y="480" width="460" height="380" rx="12" fill="white" stroke="#e5e7eb" stroke-width="1"/>
    <text x="940" y="510" font-family="Arial" font-size="16" font-weight="bold" fill="#111">💰 Financial Impact</text>
    <line x1="940" y1="520" x2="1360" y2="520" stroke="#e5e7eb" stroke-width="2"/>
    
    <!-- Financial box -->
    <rect x="940" y="540" width="420" height="280" rx="8" fill="#f0fdf4" stroke="#22c55e" stroke-width="2"/>
    <text x="960" y="580" font-family="Arial" font-size="12" fill="#4b5563">Monthly Value Protected</text>
    <text x="960" y="620" font-family="Arial" font-size="32" font-weight="bold" fill="#22c55e">$199,600</text>
    <text x="960" y="660" font-family="Arial" font-size="12" fill="#4b5563">Annual Projection: $2,395,200</text>
    <text x="960" y="690" font-family="Arial" font-size="12" fill="#4b5563">Fine Prevention: $2,370,000</text>
    <text x="960" y="720" font-family="Arial" font-size="11" fill="#6b7280">(GDPR violations avoided)</text>
  </g>
  
  <!-- Footer -->
  <text x="700" y="885" font-family="Arial" font-size="12" fill="#9ca3af" text-anchor="middle">OTT Compliance Events Pipeline - Real-time Compliance & Risk Management System</text>
</svg>
